# xmcd
#
# Track frame offsets: 
#        150
#        20759
#        34981
#        47204
#        62881
#        77541
#        90438
#        103094
#        116140
#        126913
#        141049
#        151412
#        165489
#        179934
#        191921
#        204924
#        215058
#        230040
#        244677
#        256921
#        270825
#        282730
#        297733
#        309241
#        319854
#
# Disc length: 4474 seconds
#
# Revision: 0
# Processed by: cddbd v1.5.2PL0 Copyright (c) Steve Scherf et al.
# Submitted via: ExactAudioCopy v0.95a4
#
DISCID=82117819
DTITLE=Fats Waller - Honeysuckle Rose
DYEAR=1900
DGENRE=Jazz
TTITLE0=1 - Huneysuckle Rose
TTITLE1=2 - Sugar Rose
TTITLE2=3 - Georgie Rockin' Chair
TTITLE3=4 - Somebody Stole My Girl
TTITLE4=5 - E-Flat Blues
TTITLE5=6 - S'posin'
TTITLE6=7 - 12th Street Rag
TTITLE7=8 - Christopher Columbus
TTITLE8=9 - You've Been Reading My Mail
TTITLE9=10 - There'll Be Some Changes Made
TTITLE10=11 - I'm Crazy 'bout My Baby
TTITLE11=12 - (When You) Squeeze Me
TTITLE12=13 - That Never To Be Forgotten Night
TTITLE13=14 - (You Know It All) Smarty
TTITLE14=15 - Copper Colored Gal
TTITLE15=16 - The Love Bug Will Bite You
TTITLE16=17 - Truckin'
TTITLE17=18 - Rythm and Romance
TTITLE18=19 - The Darktown Strutter's Ball
TTITLE19=20 - Your Feet's Too Big
TTITLE20=21 - I've Got My Fingers Crossed
TTITLE21=22 - I'm Always in the Mood For You
TTITLE22=23 - Please Keep Me in Your Dreams
TTITLE23=24 - I've Got a New Lease on Love
TTITLE24=25 - I'm Gonna Sit Right Down and Write Myself a Letter
EXTD=
EXTT0=
EXTT1=
EXTT2=
EXTT3=
EXTT4=
EXTT5=
EXTT6=
EXTT7=
EXTT8=
EXTT9=
EXTT10=
EXTT11=
EXTT12=
EXTT13=
EXTT14=
EXTT15=
EXTT16=
EXTT17=
EXTT18=
EXTT19=
EXTT20=
EXTT21=
EXTT22=
EXTT23=
EXTT24=
PLAYORDER=
